<svg xmlns="http://www.w3.org/2000/svg" viewBox="0 0 239.23 49.18"><defs><style>.cls-1{fill:#fff;fill-rule:evenodd;}</style></defs><g id="OBJECTS"><path class="cls-1" d="M122,13.64,132.08,12V27.6c1.37-.29,2.68-.66,4-.82a21.57,21.57,0,0,1,9.68.62A7.34,7.34,0,0,1,151,33.62a33.78,33.78,0,0,1,.42,5.12c0,3.38,0,6.78-.13,10.16s-1.08,6.24-3.8,8.37a13.25,13.25,0,0,1-6.13,2.45,46,46,0,0,1-13.3,0c-1.82-.22-3.63-.51-5.45-.73-.5-.06-.68-.27-.65-.74,0-.31,0-.63,0-.94V14.64C121.91,14.33,121.94,14,122,13.64Zm10.15,38a18.29,18.29,0,0,0,5.77,0A3.44,3.44,0,0,0,141,48c.14-3.14.18-6.29.1-9.43-.05-2.16-1-3.09-3.1-3.44a9.06,9.06,0,0,0-5.58,1.14.89.89,0,0,0-.33.68c0,2.83,0,5.67,0,8.5Z" transform="translate(-9.39 -11.04)"/><path class="cls-1" d="M248.63,59.75h-1.87c-2.78,0-5.57,0-8.35,0a1.28,1.28,0,0,1-1.26-.71c-2.73-4.6-5.49-9.18-8.23-13.76l-.34-.53V59.71c-.33,0-.58,0-.83,0-2.86,0-5.72,0-8.57,0-.68,0-.87-.19-.87-.85,0-3.22,0-6.44,0-9.66V14.62c0-1,0-1,1-1.15l8.35-1.4c.23,0,.48,0,.8-.07V41l.17.05.76-1.16q3.85-6.1,7.71-12.21a1.33,1.33,0,0,1,1.31-.76c3,.05,6,0,9,0h1.17c-.18.33-.28.56-.41.77q-4.58,7.23-9.17,14.46a1.17,1.17,0,0,0,0,1.47q4.68,7.73,9.3,15.48Z" transform="translate(-9.39 -11.04)"/><path class="cls-1" d="M117.82,50.67c0,.26,0,.47,0,.68,0,2.3,0,4.6,0,6.9,0,.48-.11.69-.64.81a53.31,53.31,0,0,1-13.91,1.09A16.61,16.61,0,0,1,97,58.64,11.13,11.13,0,0,1,90.49,50a28.39,28.39,0,0,1-.31-4.33c-.05-2.51-.09-5,0-7.55A11.76,11.76,0,0,1,93,30.53a11,11,0,0,1,6.16-3.43,22.63,22.63,0,0,1,12.16.46,9.82,9.82,0,0,1,7.08,8.62c.4,3.34.32,6.73.46,10.2h-1.06c-5.54,0-11.09,0-16.63,0-.65,0-.87.19-.81.81s0,1,.12,1.52a3.06,3.06,0,0,0,3,2.8,45.68,45.68,0,0,0,6.3.07c2.52-.17,5-.59,7.54-.9C117.49,50.66,117.63,50.67,117.82,50.67ZM104.47,39.49h2c2.2,0,2.2,0,2-2.2A2.92,2.92,0,0,0,106,34.45a9.64,9.64,0,0,0-3.08,0,2.7,2.7,0,0,0-2.37,2.24c-.14.73-.13,1.48-.2,2.22,0,.48.16.64.63.63C102.15,39.47,103.31,39.49,104.47,39.49Z" transform="translate(-9.39 -11.04)"/><path class="cls-1" d="M215.75,43.3c-.13,2.28-.11,4.5-.42,6.67-.73,5.13-3.74,8.31-8.75,9.52a22.75,22.75,0,0,1-12.38-.32,10.59,10.59,0,0,1-7.68-9,32.82,32.82,0,0,1-.3-5.06c0-2.47-.07-4.94.15-7.39.51-5.81,3.73-9.42,9.5-10.64a22.65,22.65,0,0,1,11.89.49,10.48,10.48,0,0,1,7.53,8.9C215.65,38.72,215.62,41.06,215.75,43.3Zm-10.35.08h0c0-1.6,0-3.2,0-4.79a3.43,3.43,0,0,0-2.47-3.24,6.76,6.76,0,0,0-3.65-.1,3.37,3.37,0,0,0-2.79,3.2q-.08,4.9,0,9.8A3.18,3.18,0,0,0,199,51.4a8.7,8.7,0,0,0,2.79.24,3.6,3.6,0,0,0,3.6-3.9C205.41,46.28,205.4,44.83,205.4,43.38Z" transform="translate(-9.39 -11.04)"/><path class="cls-1" d="M183.67,43.67c-.17,2.1-.18,4.56-.6,6.95-.86,5-4,7.83-8.83,8.94a23,23,0,0,1-11.69-.24,10.76,10.76,0,0,1-8.15-9,22.13,22.13,0,0,1-.3-3.46c0-2.7-.09-5.42,0-8.12.15-3.46,1.16-6.62,3.88-9a12.65,12.65,0,0,1,6.42-2.82,22.88,22.88,0,0,1,11.58.76,10.47,10.47,0,0,1,7.19,8.93C183.52,38.82,183.51,41.09,183.67,43.67Zm-19.34-.33h-.05v4.35c0,.22,0,.44.05.66a3.21,3.21,0,0,0,2.42,3,9.46,9.46,0,0,0,3,.26A3.57,3.57,0,0,0,173.27,48q0-4.65,0-9.3a3.45,3.45,0,0,0-2.58-3.38,6.7,6.7,0,0,0-3.79,0,3.31,3.31,0,0,0-2.54,3.16C164.28,40.09,164.33,41.71,164.33,43.34Z" transform="translate(-9.39 -11.04)"/><path class="cls-1" d="M50.05,58c-1.92.61-3.75,1.31-5.64,1.76a13.47,13.47,0,0,1-6.82,0c-3.57-1-5.53-3.46-6.24-7a13.08,13.08,0,0,1,0-5.25,7.1,7.1,0,0,1,5.91-5.84,26.25,26.25,0,0,1,4.52-.47c2-.08,4.07,0,6.1,0,.63,0,.82-.19.76-.78a13,13,0,0,1,0-1.53c0-2.61-1.23-3.17-3.29-3.26-3.29-.14-6.58-.11-9.87-.16h-1c.06-.79.1-1.53.17-2.26.19-1.92.38-3.85.61-5.76a.72.72,0,0,1,.54-.46c4.23,0,8.47,0,12.7.17a17,17,0,0,1,4,.76c3.63,1,5.48,3.64,6,7.25a34.5,34.5,0,0,1,.3,4.54c0,6.42,0,12.84,0,19.25,0,.69-.16.92-.88.91q-3.4-.07-6.83,0c-.67,0-.89-.27-1-.86C50.18,58.65,50.1,58.28,50.05,58Zm-4.4-9.92h0c-.75,0-1.5,0-2.25,0-1.48.05-2.1.72-2.07,2.19a2.29,2.29,0,0,0,2.48,2.56,8.33,8.33,0,0,0,4.5-1.15,1,1,0,0,0,.36-.69c0-.77,0-1.54,0-2.32,0-.49-.19-.63-.65-.61C47.25,48.12,46.45,48.1,45.65,48.1Z" transform="translate(-9.39 -11.04)"/><path class="cls-1" d="M32.13,11V16.7c0,.77,0,1.55,0,2.32,0,.47-.14.64-.62.63-1.33,0-2.67,0-4,0a6.93,6.93,0,0,0-1.36.17,1.72,1.72,0,0,0-1.43,1.7c-.05,1.78,0,3.57,0,5.44h7.47c-.13,1.36-.24,2.63-.37,3.89s-.29,2.55-.4,3.82c0,.58-.2.84-.86.83-2,0-3.91,0-5.94,0v24.2H14.47c0-.33-.07-.68-.07-1q0-11.16,0-22.3c0-.68-.14-.93-.87-.9-1.34.07-2.7,0-4.14,0v-.86c0-2.18,0-4.36,0-6.54,0-1.21-.14-1.1,1.07-1.1s2.18,0,3.27,0c.53,0,.66-.18.66-.67,0-2,0-4,.1-6a9.45,9.45,0,0,1,2.74-6.67,8.17,8.17,0,0,1,5.08-2.26C25.54,11.13,28.78,11.14,32.13,11Z" transform="translate(-9.39 -11.04)"/><path class="cls-1" d="M87.34,36.14c-1.62-.26-3.12-.51-4.62-.72A22.24,22.24,0,0,0,75,35.34a3,3,0,0,0-2.61,3q-.09,5,0,10.08a2.76,2.76,0,0,0,2.46,2.89,29.39,29.39,0,0,0,5.62.23c2.11-.14,4.2-.58,6.31-.89a4,4,0,0,1,.49,0,5.52,5.52,0,0,1,.07.55c0,2.35,0,4.7,0,7,0,.46-.1.67-.6.78a40.47,40.47,0,0,1-11.44,1.11c-3.4-.22-6.64-1-9.28-3.39a10.82,10.82,0,0,1-3.7-7.49,88.3,88.3,0,0,1-.14-10.79,11.47,11.47,0,0,1,5.52-9.75,15.74,15.74,0,0,1,6.58-2,37.78,37.78,0,0,1,12.44,1c.23.05.58.34.58.52C87.35,30.84,87.34,33.42,87.34,36.14Z" transform="translate(-9.39 -11.04)"/></g></svg>